# 3ds Max Wavefront OBJ Exporter v0.97b - (c)2007 guruware
# File Created: 05.05.2018 00:53:13

mtllib Pipe.mtl

#
# object Pipe
#

v  0.3902 -5.5839 -0.1420
v  0.3902 -4.7343 -0.1420
v  0.3902 -5.5839 0.1420
v  0.2076 -5.5839 -0.3596
v  0.2076 -4.7343 -0.3596
v  -0.0721 -5.5839 -0.4089
v  -0.0721 -4.7343 -0.4089
v  -0.3181 -5.5839 -0.2669
v  -0.3181 -4.7343 -0.2669
v  -0.4152 -5.5839 -0.0000
v  -0.4152 -4.7343 -0.0000
v  -0.3181 -5.5839 0.2669
v  -0.3181 -4.7343 0.2669
v  -0.0721 -5.5839 0.4089
v  -0.0721 -4.7343 0.4089
v  0.2076 -5.5839 0.3596
v  0.2076 -4.7343 0.3596
v  0.3902 -4.7343 0.1420
v  0.3798 -0.2887 -0.1383
v  0.2021 -0.2887 -0.3501
v  0.3798 -0.2887 0.1383
v  0.3902 -0.4044 0.1420
v  0.5697 -0.4043 -0.2074
v  0.6063 -0.4043 -0.0000
v  0.3902 -0.4044 -0.1420
v  0.4645 -0.4043 -0.3897
v  0.3032 -0.4043 -0.5251
v  0.2076 -0.4044 -0.3596
v  0.1053 -0.4043 -0.5971
v  -0.1053 -0.4043 -0.5971
v  -0.0721 -0.4044 -0.4089
v  -0.3032 -0.4043 -0.5251
v  -0.4645 -0.4043 -0.3897
v  -0.3181 -0.4044 -0.2669
v  -0.5697 -0.4043 -0.2074
v  -0.6063 -0.4043 -0.0000
v  -0.4152 -0.4044 -0.0000
v  -0.5697 -0.4043 0.2074
v  -0.4645 -0.4043 0.3897
v  -0.3181 -0.4044 0.2669
v  -0.3032 -0.4043 0.5251
v  -0.1053 -0.4043 0.5971
v  -0.0721 -0.4044 0.4089
v  0.1053 -0.4043 0.5971
v  0.3032 -0.4043 0.5251
v  0.2076 -0.4044 0.3596
v  0.4645 -0.4043 0.3897
v  0.5697 -0.4043 0.2074
v  0.5697 0.0004 -0.2074
v  0.6063 0.0004 -0.0000
v  0.4645 0.0004 -0.3897
v  0.3032 0.0004 -0.5251
v  0.1053 0.0004 -0.5971
v  -0.1053 0.0004 -0.5971
v  -0.3032 0.0004 -0.5251
v  -0.4645 0.0004 -0.3897
v  -0.5697 0.0004 -0.2074
v  -0.6063 0.0004 -0.0000
v  -0.5697 0.0004 0.2074
v  -0.4645 0.0004 0.3897
v  -0.3032 0.0004 0.5251
v  -0.1053 0.0004 0.5971
v  0.1053 0.0004 0.5971
v  0.3032 0.0004 0.5251
v  0.4645 0.0004 0.3897
v  0.5697 0.0004 0.2074
v  0.3798 0.0276 -0.1383
v  0.4042 0.0276 -0.0000
v  0.3097 0.0276 -0.2598
v  0.2021 0.0276 -0.3501
v  0.0702 0.0276 -0.3981
v  -0.0702 0.0276 -0.3981
v  -0.2021 0.0276 -0.3501
v  -0.3097 0.0276 -0.2598
v  -0.3798 0.0276 -0.1383
v  -0.4042 0.0276 -0.0000
v  -0.3798 0.0276 0.1383
v  -0.3097 0.0276 0.2598
v  -0.2021 0.0276 0.3501
v  -0.0702 0.0276 0.3981
v  0.0702 0.0276 0.3981
v  0.2021 0.0276 0.3501
v  0.3097 0.0276 0.2598
v  0.3798 0.0276 0.1383
v  -0.0702 -0.2887 -0.3981
v  -0.3097 -0.2887 -0.2598
v  -0.4042 -0.2887 -0.0000
v  -0.3097 -0.2887 0.2598
v  -0.0702 -0.2887 0.3981
v  0.2021 -0.2887 0.3501
v  0.3902 -3.8848 -0.1420
v  0.3902 -3.8848 0.1420
v  0.2076 -3.8848 -0.3596
v  -0.0721 -3.8848 -0.4089
v  -0.3181 -3.8848 -0.2669
v  -0.4152 -3.8848 -0.0000
v  -0.3181 -3.8848 0.2669
v  -0.0721 -3.8848 0.4089
v  0.2076 -3.8848 0.3596
v  0.3902 -6.4334 0.1420
v  0.3902 -6.4334 -0.1420
v  0.2076 -6.4334 -0.3596
v  -0.0721 -6.4334 -0.4089
v  -0.3181 -6.4334 -0.2669
v  -0.4152 -6.4334 -0.0000
v  -0.3181 -6.4334 0.2669
v  -0.0721 -6.4334 0.4089
v  0.2076 -6.4334 0.3596
# 108 vertices

vn 0.9397 0.0000 -0.3420
vn 0.9397 0.0000 0.3420
vn 0.5000 0.0000 -0.8660
vn -0.1736 0.0000 -0.9848
vn -0.7661 0.0000 -0.6428
vn -1.0000 0.0000 -0.0000
vn -1.0000 0.0000 0.0000
vn -0.7661 0.0000 0.6428
vn -0.1736 0.0000 0.9848
vn 0.5000 0.0000 0.8660
vn 0.0000 1.0000 -0.0000
vn 0.0003 -1.0000 0.0001
vn 0.0003 -1.0000 -0.0001
vn 0.0003 -1.0000 -0.0000
vn 0.0002 -1.0000 -0.0002
vn 0.0002 -1.0000 -0.0003
vn 0.0000 -1.0000 -0.0003
vn -0.0000 -1.0000 -0.0003
vn -0.0001 -1.0000 -0.0002
vn -0.0002 -1.0000 -0.0002
vn -0.0003 -1.0000 -0.0001
vn -0.0003 -1.0000 -0.0000
vn -0.0002 -1.0000 0.0001
vn -0.0002 -1.0000 0.0002
vn -0.0001 -1.0000 0.0002
vn -0.0001 -1.0000 0.0003
vn 0.0001 -1.0000 0.0003
vn 0.0002 -1.0000 0.0002
vn 1.0000 0.0000 0.0000
vn 0.7660 0.0000 -0.6428
vn 0.7660 -0.0000 -0.6428
vn 0.5000 -0.0000 -0.8660
vn 0.1736 0.0000 -0.9848
vn -0.1736 -0.0000 -0.9848
vn -0.5000 -0.0000 -0.8660
vn -0.7660 -0.0000 -0.6428
vn -0.9397 0.0000 -0.3420
vn -0.9397 -0.0000 -0.3420
vn -1.0000 -0.0000 -0.0000
vn -0.9397 -0.0000 0.3420
vn -0.7660 -0.0000 0.6428
vn -0.5000 0.0000 0.8660
vn 0.1736 0.0000 0.9848
vn 0.5000 -0.0000 0.8660
vn 0.7660 -0.0000 0.6428
vn 0.7660 0.0000 0.6428
vn 0.0000 1.0000 0.0000
vn -0.0000 1.0000 -0.0000
vn -0.0000 1.0000 0.0000
vn -0.9931 0.1068 -0.0481
vn -0.9236 0.0439 0.3809
vn -0.9370 0.0180 0.3489
vn -0.4935 0.0180 0.8696
vn -0.7917 0.1068 0.6015
vn -0.4626 0.0439 0.8855
vn 0.1809 0.0180 0.9833
vn -0.2199 0.1068 0.9697
vn 0.2148 0.0439 0.9757
vn 0.7706 0.0180 0.6370
vn 0.4549 0.1068 0.8841
vn 0.7917 0.0439 0.6094
vn 0.9998 0.0180 -0.0074
vn 0.9168 0.1068 0.3849
vn 0.9982 0.0439 -0.0421
vn 0.7612 0.0180 -0.6483
vn 0.9497 0.1068 -0.2944
vn 0.7376 0.0439 -0.6738
vn 0.1663 0.0180 -0.9859
vn 0.5382 0.1068 -0.8360
vn 0.1319 0.0439 -0.9903
vn -0.5063 0.0180 -0.8622
vn -0.1251 0.1068 -0.9864
vn -0.5355 0.0439 -0.8434
vn -0.9420 0.0180 -0.3350
vn -0.7298 0.1068 -0.6752
vn -0.9523 0.0439 -0.3019
# 76 vertex normals

vt 0.3063 0.2437 -1.2190
vt 0.3063 0.3662 -0.7406
vt 0.2654 0.2437 -0.6522
vt 0.3473 0.2437 -1.6973
vt 0.3473 0.3662 -1.6973
vt 0.3883 0.2437 -1.6973
vt 0.3883 0.3662 -1.6973
vt 0.0606 0.2437 -1.6973
vt 0.0606 0.3662 -1.6973
vt 0.0197 0.2437 -1.6973
vt 0.1016 0.2437 -1.6973
vt 0.1016 0.3662 -1.6973
vt 0.1425 0.2437 -1.6973
vt 0.1425 0.3662 -1.6973
vt 0.1835 0.2437 -1.6973
vt 0.1835 0.3662 -1.6973
vt 0.2244 0.2437 -1.6973
vt 0.2244 0.3662 -1.6973
vt 0.2654 0.3662 -0.8236
vt 0.9007 0.6461 -1.3627
vt 0.8619 0.6923 -1.3627
vt 0.9007 0.5858 -1.3627
vt 0.9214 0.6523 -0.9492
vt 0.9686 0.5606 -0.9492
vt 0.9782 0.6150 0.9492
vt 0.9214 0.5777 -0.9492
vt 0.9410 0.5126 -0.9492
vt 0.8985 0.4770 -0.9492
vt 0.8734 0.5205 -0.9492
vt 0.8466 0.4581 -0.9492
vt 0.7912 0.4581 -0.9492
vt 0.7999 0.5075 -0.9492
vt 0.7392 0.4770 -0.9492
vt 0.7911 0.4581 -0.9492
vt 0.6967 0.5126 -0.9492
vt 0.7352 0.5449 -0.9492
vt 0.6691 0.5606 -0.9492
vt 0.6595 0.6150 0.9492
vt 0.7097 0.6150 -0.9492
vt 0.6691 0.6695 -0.9492
vt 0.6967 0.7175 -0.9492
vt 0.7352 0.6852 -0.9492
vt 0.7392 0.7530 -0.9492
vt 0.7911 0.7719 -0.9492
vt 0.7999 0.7225 -0.9492
vt 0.8465 0.7719 -0.9492
vt 0.8985 0.7530 -0.9492
vt 0.8734 0.7095 -0.9492
vt 0.9410 0.7175 -0.9492
vt 0.9686 0.6695 -0.9492
vt 0.7229 0.0005 -1.5941
vt 0.7782 0.1069 -1.5941
vt 0.7229 0.1069 1.5941
vt 0.7782 0.0005 -1.5941
vt 0.8335 0.1069 -1.5941
vt 0.8335 0.0005 -1.5941
vt 0.8889 0.1069 -1.5941
vt 0.8889 0.0005 -1.5941
vt 0.9442 0.1069 -1.5941
vt 0.9442 0.0005 -1.5941
vt 0.9995 0.1069 -1.5941
vt 0.0037 0.0005 -1.5941
vt 0.0590 0.1069 -1.5941
vt 0.0037 0.1069 -1.5941
vt 0.0590 0.0005 -1.5941
vt 0.1143 0.1069 -1.5941
vt 0.1143 0.0005 -1.5941
vt 0.1696 0.1069 -1.5941
vt 0.1696 0.0005 -1.5941
vt 0.2250 0.1069 1.5941
vt 0.2250 0.0005 -1.5941
vt 0.2803 0.1069 -1.5941
vt 0.2803 0.0005 -1.5941
vt 0.3356 0.1069 -1.5941
vt 0.3356 0.0005 -1.5941
vt 0.3909 0.1069 -1.5941
vt 0.3909 0.0005 -1.5941
vt 0.4463 0.1069 -1.5941
vt 0.4463 0.0005 -1.5941
vt 0.5016 0.1069 -1.5941
vt 0.5016 0.0005 -1.5941
vt 0.5569 0.1069 -1.5941
vt 0.5569 0.0005 -1.5941
vt 0.6122 0.1069 -1.5941
vt 0.6122 0.0005 -1.5941
vt 0.6676 0.1069 -1.5941
vt 0.6676 0.0005 -1.5941
vt 0.9918 0.2653 1.0203
vt 0.9323 0.3017 -1.0203
vt 0.9387 0.2653 -1.0203
vt 0.9822 0.3198 -1.0203
vt 0.9139 0.3336 -1.0203
vt 0.9546 0.3677 -1.0203
vt 0.8856 0.3573 -1.0203
vt 0.9121 0.4033 -1.0203
vt 0.8509 0.3699 -1.0203
vt 0.8602 0.4223 -1.0203
vt 0.8141 0.3699 -1.0203
vt 0.8048 0.4223 -1.0203
vt 0.7793 0.3573 -1.0203
vt 0.7528 0.4033 -1.0203
vt 0.7511 0.3336 -1.0203
vt 0.7104 0.3677 -1.0203
vt 0.7327 0.3017 -1.0203
vt 0.6827 0.3198 -1.0203
vt 0.7263 0.2653 -1.0203
vt 0.6731 0.2653 1.0203
vt 0.7327 0.2290 -1.0203
vt 0.6827 0.2108 -1.0203
vt 0.7511 0.1969 -1.0203
vt 0.7104 0.1628 -1.0203
vt 0.7793 0.1733 -1.0203
vt 0.7528 0.1273 -1.0203
vt 0.8141 0.1606 -1.0203
vt 0.8048 0.1084 -1.0203
vt 0.8509 0.1606 -1.0203
vt 0.8602 0.1084 -1.0203
vt 0.8856 0.1733 -1.0203
vt 0.9121 0.1273 -1.0203
vt 0.9139 0.1969 -1.0203
vt 0.9546 0.1628 -1.0203
vt 0.9323 0.2290 -1.0203
vt 0.9822 0.2108 -1.0203
vt 0.6402 0.5935 1.6025
vt 0.6397 0.6302 -1.6025
vt 0.5636 0.6290 -1.6025
vt 0.5627 0.7018 -1.6025
vt 0.6396 0.6671 -1.6025
vt 0.6389 0.7039 -1.6025
vt 0.5608 0.7744 -1.6025
vt 0.6382 0.7407 -1.6025
vt 0.6367 0.7776 -1.6025
vt 0.6398 0.1174 -1.6025
vt 0.5639 0.1906 -1.6025
vt 0.5638 0.1177 -1.6025
vt 0.6402 0.1542 -1.6025
vt 0.6400 0.1908 -1.6025
vt 0.5639 0.2636 -1.6025
vt 0.6403 0.2274 -1.6025
vt 0.6400 0.2640 1.6025
vt 0.5639 0.3366 -1.6025
vt 0.6403 0.3006 -1.6025
vt 0.6400 0.3372 -1.6025
vt 0.5639 0.4098 -1.6025
vt 0.6402 0.3737 -1.6025
vt 0.6400 0.4103 -1.6025
vt 0.5639 0.4829 -1.6025
vt 0.6402 0.4468 -1.6025
vt 0.6400 0.4835 -1.6025
vt 0.5639 0.5561 -1.6025
vt 0.6403 0.5201 -1.6025
vt 0.6400 0.5567 -1.6025
vt 0.8025 0.7028 1.3627
vt 0.7503 0.6727 -1.3627
vt 0.7296 0.6159 -1.3627
vt 0.7503 0.5593 -1.3627
vt 0.8025 0.5291 1.3627
vt 0.8619 0.5396 -1.3627
vt 0.9995 0.0005 -1.5941
vt 0.3063 0.4887 -0.2623
vt 0.3063 0.9905 1.6973
vt 0.2654 0.4887 -0.9950
vt 0.3473 0.4887 -1.6973
vt 0.3473 0.9905 -1.6973
vt 0.3882 0.4887 -1.6973
vt 0.3882 0.9905 -1.6973
vt 0.0606 0.4887 -1.6973
vt 0.0606 0.9904 -1.6973
vt 0.0197 0.4887 -1.6973
vt 0.1016 0.4887 -1.6973
vt 0.1016 0.9904 -1.6973
vt 0.1425 0.4887 -1.6973
vt 0.1425 0.9904 -1.6973
vt 0.1835 0.4887 -1.6973
vt 0.1835 0.9904 -1.6973
vt 0.2244 0.4887 -1.6973
vt 0.2244 0.9904 -1.6973
vt 0.2654 0.9904 -1.6973
vt 0.2654 0.1212 -0.4808
vt 0.3064 0.1212 -1.6973
vt 0.3473 0.1212 -1.6973
vt 0.0197 0.3662 -1.6973
vt 0.0197 0.1212 -1.6973
vt 0.0606 0.1212 -1.6973
vt 0.1016 0.1212 -1.6973
vt 0.1425 0.1212 -1.6973
vt 0.1835 0.1212 -1.6973
vt 0.2244 0.1212 -1.6973
vt 0.0197 0.9904 -1.6973
vt 0.3883 0.1212 -1.6973
# 190 texture coords

o Pipe
g Pipe
usemtl wire_113135006
s 2
f 1/1/1 2/2/1 3/3/2 
f 4/4/3 5/5/3 1/1/1 
f 6/6/4 7/7/4 4/4/3 
f 8/8/5 9/9/5 6/10/4 
f 10/11/6 11/12/7 8/8/5 
f 12/13/8 13/14/8 10/11/6 
f 14/15/9 15/16/9 12/13/8 
f 16/17/10 17/18/10 14/15/9 
f 3/3/2 18/19/2 16/17/10 
s 1
f 19/20/11 20/21/11 21/22/11 
f 22/23/12 23/24/13 24/25/14 
f 25/26/13 26/27/15 23/24/13 
f 25/26/13 27/28/15 26/27/15 
f 28/29/16 29/30/17 27/28/15 
f 28/29/16 30/31/18 29/30/17 
f 31/32/18 32/33/19 30/34/18 
f 31/32/18 33/35/20 32/33/19 
f 34/36/20 35/37/21 33/35/20 
f 34/36/20 36/38/22 35/37/21 
f 37/39/22 38/40/23 36/38/22 
f 37/39/22 39/41/24 38/40/23 
f 40/42/24 41/43/25 39/41/24 
f 40/42/24 42/44/26 41/43/25 
f 43/45/26 44/46/27 42/44/26 
f 43/45/26 45/47/27 44/46/27 
f 46/48/27 47/49/28 45/47/27 
f 46/48/27 48/50/12 47/49/28 
f 22/23/12 24/25/14 48/50/12 
s 2
f 24/51/29 49/52/1 50/53/29 
f 23/54/1 51/55/30 49/52/1 
f 26/56/31 52/57/32 51/55/30 
f 27/58/3 53/59/33 52/57/32 
f 29/60/33 54/61/4 53/59/33 
f 30/62/34 55/63/35 54/64/4 
f 32/65/35 56/66/36 55/63/35 
f 33/67/36 57/68/37 56/66/36 
f 35/69/38 58/70/39 57/68/37 
f 36/71/39 59/72/40 58/70/39 
f 38/73/40 60/74/41 59/72/40 
f 39/75/41 61/76/42 60/74/41 
f 41/77/42 62/78/9 61/76/42 
f 42/79/9 63/80/43 62/78/9 
f 44/81/43 64/82/10 63/80/43 
f 45/83/44 65/84/45 64/82/10 
f 47/85/46 66/86/2 65/84/45 
f 48/87/2 50/53/29 66/86/2 
s 1
f 50/88/47 67/89/11 68/90/11 
f 49/91/11 69/92/11 67/89/11 
f 51/93/11 70/94/11 69/92/11 
f 52/95/11 71/96/11 70/94/11 
f 53/97/11 72/98/48 71/96/11 
f 54/99/48 73/100/48 72/98/48 
f 55/101/48 74/102/48 73/100/48 
f 56/103/48 75/104/48 74/102/48 
f 57/105/48 76/106/49 75/104/48 
f 58/107/48 77/108/49 76/106/49 
f 59/109/49 78/110/49 77/108/49 
f 60/111/49 79/112/49 78/110/49 
f 61/113/49 80/114/49 79/112/49 
f 62/115/49 81/116/47 80/114/49 
f 63/117/47 82/118/47 81/116/47 
f 64/119/47 83/120/47 82/118/47 
f 65/121/47 84/122/47 83/120/47 
f 66/123/47 68/90/11 84/122/47 
s 2
f 68/124/50 67/125/51 19/126/52 
f 67/125/51 20/127/53 19/126/52 
f 69/128/54 70/129/55 20/127/53 
f 70/129/55 85/130/56 20/127/53 
f 71/131/57 72/132/58 85/130/56 
f 72/133/58 86/134/59 85/135/56 
f 73/136/60 74/137/61 86/134/59 
f 74/137/61 87/138/62 86/134/59 
f 75/139/63 76/140/64 87/138/62 
f 76/140/64 88/141/65 87/138/62 
f 77/142/66 78/143/67 88/141/65 
f 78/143/67 89/144/68 88/141/65 
f 79/145/69 80/146/70 89/144/68 
f 80/146/70 90/147/71 89/144/68 
f 81/148/72 82/149/73 90/147/71 
f 82/149/73 21/150/74 90/147/71 
f 83/151/75 84/152/76 21/150/74 
f 84/152/76 19/126/52 21/150/74 
s 1
f 20/21/11 85/153/11 86/154/11 
f 86/154/11 87/155/11 88/156/11 
f 88/156/11 89/157/11 90/158/11 
f 86/154/11 88/156/11 90/158/11 
f 20/21/11 86/154/11 90/158/11 
f 20/21/11 90/158/11 21/22/11 
f 22/23/12 25/26/13 23/24/13 
f 25/26/13 28/29/16 27/28/15 
f 28/29/16 31/32/18 30/31/18 
f 31/32/18 34/36/20 33/35/20 
f 34/36/20 37/39/22 36/38/22 
f 37/39/22 40/42/24 39/41/24 
f 40/42/24 43/45/26 42/44/26 
f 43/45/26 46/48/27 45/47/27 
f 46/48/27 22/23/12 48/50/12 
s 2
f 24/51/29 23/54/1 49/52/1 
f 23/54/1 26/56/31 51/55/30 
f 26/56/31 27/58/3 52/57/32 
f 27/58/3 29/60/33 53/59/33 
f 29/60/33 30/159/34 54/61/4 
f 30/62/34 32/65/35 55/63/35 
f 32/65/35 33/67/36 56/66/36 
f 33/67/36 35/69/38 57/68/37 
f 35/69/38 36/71/39 58/70/39 
f 36/71/39 38/73/40 59/72/40 
f 38/73/40 39/75/41 60/74/41 
f 39/75/41 41/77/42 61/76/42 
f 41/77/42 42/79/9 62/78/9 
f 42/79/9 44/81/43 63/80/43 
f 44/81/43 45/83/44 64/82/10 
f 45/83/44 47/85/46 65/84/45 
f 47/85/46 48/87/2 66/86/2 
f 48/87/2 24/51/29 50/53/29 
s 1
f 50/88/47 49/91/11 67/89/11 
f 49/91/11 51/93/11 69/92/11 
f 51/93/11 52/95/11 70/94/11 
f 52/95/11 53/97/11 71/96/11 
f 53/97/11 54/99/48 72/98/48 
f 54/99/48 55/101/48 73/100/48 
f 55/101/48 56/103/48 74/102/48 
f 56/103/48 57/105/48 75/104/48 
f 57/105/48 58/107/48 76/106/49 
f 58/107/48 59/109/49 77/108/49 
f 59/109/49 60/111/49 78/110/49 
f 60/111/49 61/113/49 79/112/49 
f 61/113/49 62/115/49 80/114/49 
f 62/115/49 63/117/47 81/116/47 
f 63/117/47 64/119/47 82/118/47 
f 64/119/47 65/121/47 83/120/47 
f 65/121/47 66/123/47 84/122/47 
f 66/123/47 50/88/47 68/90/11 
s 2
f 67/125/51 69/128/54 20/127/53 
f 70/129/55 71/131/57 85/130/56 
f 72/133/58 73/136/60 86/134/59 
f 74/137/61 75/139/63 87/138/62 
f 76/140/64 77/142/66 88/141/65 
f 78/143/67 79/145/69 89/144/68 
f 80/146/70 81/148/72 90/147/71 
f 82/149/73 83/151/75 21/150/74 
f 84/152/76 68/124/50 19/126/52 
f 91/160/1 25/161/1 92/162/2 
f 93/163/3 28/164/3 91/160/1 
f 94/165/4 31/166/4 93/163/3 
f 95/167/5 34/168/5 94/169/4 
f 96/170/6 37/171/7 95/167/5 
f 97/172/8 40/173/8 96/170/6 
f 98/174/9 43/175/9 97/172/8 
f 99/176/10 46/177/10 98/174/9 
f 92/162/2 22/178/2 99/176/10 
f 2/2/1 91/160/1 18/19/2 
f 3/3/2 100/179/2 1/1/1 
f 5/5/3 93/163/3 2/2/1 
f 1/1/1 101/180/1 4/4/3 
f 7/7/4 94/165/4 5/5/3 
f 4/4/3 102/181/3 6/6/4 
f 9/9/5 95/167/5 7/182/4 
f 6/10/4 103/183/4 8/8/5 
f 11/12/7 96/170/6 9/9/5 
f 8/8/5 104/184/5 10/11/6 
f 13/14/8 97/172/8 11/12/7 
f 10/11/6 105/185/7 12/13/8 
f 15/16/9 98/174/9 13/14/8 
f 12/13/8 106/186/8 14/15/9 
f 17/18/10 99/176/10 15/16/9 
f 14/15/9 107/187/9 16/17/10 
f 18/19/2 92/162/2 17/18/10 
f 16/17/10 108/188/10 3/3/2 
f 2/2/1 18/19/2 3/3/2 
f 5/5/3 2/2/1 1/1/1 
f 7/7/4 5/5/3 4/4/3 
f 9/9/5 7/182/4 6/10/4 
f 11/12/7 9/9/5 8/8/5 
f 13/14/8 11/12/7 10/11/6 
f 15/16/9 13/14/8 12/13/8 
f 17/18/10 15/16/9 14/15/9 
f 18/19/2 17/18/10 16/17/10 
f 25/161/1 22/178/2 92/162/2 
f 28/164/3 25/161/1 91/160/1 
f 31/166/4 28/164/3 93/163/3 
f 34/168/5 31/189/4 94/169/4 
f 37/171/7 34/168/5 95/167/5 
f 40/173/8 37/171/7 96/170/6 
f 43/175/9 40/173/8 97/172/8 
f 46/177/10 43/175/9 98/174/9 
f 22/178/2 46/177/10 99/176/10 
f 91/160/1 92/162/2 18/19/2 
f 100/179/2 101/180/1 1/1/1 
f 93/163/3 91/160/1 2/2/1 
f 101/180/1 102/181/3 4/4/3 
f 94/165/4 93/163/3 5/5/3 
f 102/181/3 103/190/4 6/6/4 
f 95/167/5 94/169/4 7/182/4 
f 103/183/4 104/184/5 8/8/5 
f 96/170/6 95/167/5 9/9/5 
f 104/184/5 105/185/7 10/11/6 
f 97/172/8 96/170/6 11/12/7 
f 105/185/7 106/186/8 12/13/8 
f 98/174/9 97/172/8 13/14/8 
f 106/186/8 107/187/9 14/15/9 
f 99/176/10 98/174/9 15/16/9 
f 107/187/9 108/188/10 16/17/10 
f 92/162/2 99/176/10 17/18/10 
f 108/188/10 100/179/2 3/3/2 
# 0 polygons - 205 triangles

