# 3ds Max Wavefront OBJ Exporter v0.97b - (c)2007 guruware
# File Created: 06.05.2018 00:22:40

mtllib BackgroundPlane.mtl

#
# object Ground
#

v  5.0000 -0.2392 10.0000
v  5.0000 -0.2392 -10.0000
v  -5.0000 -0.2392 10.0000
v  -5.0000 -0.2392 -10.0000
# 4 vertices

vn 0.0000 1.0000 -0.0000
# 1 vertex normals

vt 0.0005 -0.0001 0.0000
vt 0.9995 -0.0001 0.0000
vt 0.0005 0.5001 0.0000
vt 0.9995 0.5001 0.0000
# 4 texture coords

o Ground
g Ground
usemtl 03___Default
s 1
f 1/1/1 2/2/1 3/3/1 
f 2/2/1 4/4/1 3/3/1 
# 0 polygons - 2 triangles

