# 3ds Max Wavefront OBJ Exporter v0.97b - (c)2007 guruware
# File Created: 05.05.2018 01:00:54

mtllib Path.mtl

#
# object Path
#

v  5.0000 0.0000 4.3547
v  5.0000 0.0000 -4.3547
v  -5.0000 0.0000 4.3547
v  5.0000 -0.2392 -5.0000
v  -5.0000 0.0000 -4.3547
v  -5.0000 -0.2392 5.0000
v  -5.0000 -0.2392 -5.0000
v  5.0000 -0.2392 5.0000
# 8 vertices

vn 0.0000 1.0000 -0.0000
vn 0.0000 0.9703 -0.2420
vn 0.0000 0.9376 -0.3476
vn 0.0000 0.9843 -0.1766
vn 0.0000 0.9736 0.2284
vn 0.0000 0.9376 0.3476
# 6 vertex normals

vt 0.0650 0.0005 0.0000
vt 0.9350 0.0005 0.0000
vt 0.0650 0.9995 0.0000
vt 0.9995 0.0005 0.0000
vt 0.9350 0.9995 0.0000
vt 0.0005 0.9995 0.0000
vt 0.9995 0.9995 0.0000
vt 0.0005 0.0005 0.0000
# 8 texture coords

o Path
g Path
usemtl wire_113135006
s 1
f 1/1/1 2/2/1 3/3/1 
f 2/2/2 4/4/3 5/5/4 
f 3/3/5 6/6/6 1/1/6 
f 2/2/2 5/5/4 3/3/5 
f 4/4/3 7/7/3 5/5/4 
f 6/6/6 8/8/6 1/1/6 
# 0 polygons - 6 triangles

