# 3ds Max Wavefront OBJ Exporter v0.97b - (c)2007 guruware
# File Created: 29.04.2018 16:05:10

#
# object Bird
#

v  -0.3431 0.0000 -0.0106
v  -0.3177 0.0116 -0.1294
v  -0.3177 -0.0377 -0.1238
v  -0.3177 -0.0805 -0.0987
v  -0.3177 -0.1094 -0.0583
v  -0.3177 -0.1193 -0.0097
v  -0.3177 -0.1087 0.0387
v  -0.3177 -0.0792 0.0786
v  -0.3177 -0.0361 0.1031
v  -0.3177 0.0133 0.1080
v  -0.3177 0.0604 0.0923
v  -0.3177 0.0970 0.0588
v  -0.3177 0.1169 0.0134
v  -0.3177 0.1165 -0.0362
v  -0.3177 0.0960 -0.0814
v  -0.3177 0.0589 -0.1144
v  -0.2460 0.0212 -0.2276
v  -0.2460 -0.0689 -0.2175
v  -0.2460 -0.1470 -0.1716
v  -0.2460 -0.1998 -0.0978
v  -0.2460 -0.2180 -0.0090
v  -0.2460 -0.1985 0.0795
v  -0.2460 -0.1447 0.1525
v  -0.2460 -0.0659 0.1972
v  -0.2460 0.0243 0.2061
v  -0.2460 0.1104 0.1774
v  -0.2460 0.1773 0.1163
v  -0.2460 0.2136 0.0332
v  -0.2460 0.2129 -0.0575
v  -0.2460 0.1755 -0.1400
v  -0.2460 0.1076 -0.2002
v  -0.2658 -0.0034 -0.4466
v  -0.1602 0.0026 -0.5073
v  -0.1602 -0.1127 -0.4944
v  -0.1404 -0.0881 -0.2753
v  -0.1404 -0.1882 -0.2166
v  -0.1404 -0.2557 -0.1222
v  -0.1404 -0.2790 -0.0086
v  -0.1404 -0.2541 0.1047
v  -0.1404 -0.1852 0.1981
v  -0.1404 -0.0843 0.2554
v  -0.2658 -0.0873 0.4166
v  -0.1602 -0.1058 0.4747
v  -0.1602 0.0097 0.4860
v  -0.1404 0.0312 0.2667
v  -0.1404 0.1412 0.2300
v  -0.1404 0.2269 0.1518
v  -0.1404 0.2733 0.0454
v  -0.1404 0.2725 -0.0706
v  -0.1404 0.2245 -0.1762
v  -0.1404 0.1378 -0.2532
v  -0.1404 0.0272 -0.2883
v  -0.0389 0.0038 -0.5200
v  -0.0389 -0.1168 -0.5065
v  -0.0190 -0.0922 -0.2874
v  -0.0190 -0.1968 -0.2260
v  -0.0190 -0.2674 -0.1274
v  -0.0190 -0.2918 -0.0085
v  -0.0190 -0.2657 0.1100
v  -0.0190 -0.1937 0.2076
v  -0.0190 -0.0882 0.2675
v  -0.0389 -0.1096 0.4869
v  -0.0389 0.0111 0.4987
v  -0.0190 0.0326 0.2793
v  -0.0190 0.1477 0.2410
v  -0.0190 0.2373 0.1592
v  -0.0190 0.2858 0.0480
v  -0.0190 0.2849 -0.0733
v  -0.0190 0.2348 -0.1838
v  -0.0190 0.1441 -0.2643
v  -0.0190 0.0284 -0.3010
v  0.0772 0.0001 -0.4825
v  0.0772 -0.1049 -0.4707
v  0.0970 -0.0802 -0.2517
v  0.0970 -0.1714 -0.1982
v  0.0970 -0.2328 -0.1123
v  0.0970 -0.2541 -0.0088
v  0.0970 -0.2314 0.0944
v  0.0970 -0.1686 0.1794
v  0.0970 -0.0768 0.2316
v  0.0772 -0.0982 0.4510
v  0.0772 0.0069 0.4612
v  0.0970 0.0284 0.2419
v  0.0970 0.1286 0.2085
v  0.0970 0.2066 0.1373
v  0.0970 0.2489 0.0404
v  0.0970 0.2481 -0.0652
v  0.0970 0.2045 -0.1614
v  0.0970 0.1254 -0.2315
v  0.0970 0.0247 -0.2635
v  0.1876 0.0168 -0.1822
v  0.1876 -0.0545 -0.1742
v  0.1876 -0.1163 -0.1379
v  0.1876 -0.1580 -0.0796
v  0.1876 -0.1724 -0.0094
v  0.1876 -0.1570 0.0607
v  0.1876 -0.1145 0.1184
v  0.1876 -0.0521 0.1538
v  0.1876 0.0193 0.1608
v  0.1876 0.0873 0.1381
v  0.1876 0.1402 0.0898
v  0.1876 0.1689 0.0240
v  0.1876 0.1684 -0.0477
v  0.1876 0.1388 -0.1130
v  0.1876 0.0851 -0.1606
v  0.3552 0.0000 -0.0106
v  0.3211 -0.0332 -0.1105
v  0.3211 0.0102 -0.1153
v  0.3211 -0.0710 -0.0883
v  0.3211 -0.0964 -0.0527
v  0.3211 -0.1052 -0.0098
v  0.3211 -0.0958 0.0329
v  0.3211 -0.0699 0.0681
v  0.3211 -0.0318 0.0897
v  0.3211 0.0118 0.0940
v  0.3211 0.0533 0.0802
v  0.3211 0.0856 0.0506
v  0.3211 0.1031 0.0105
v  0.3211 0.1028 -0.0332
v  0.3211 0.0847 -0.0731
v  0.3211 0.0520 -0.1021
v  -0.2658 -0.0935 -0.4365
v  -0.2658 0.0029 0.4254
# 123 vertices

vn -1.0000 0.0000 0.0000
vn -0.9031 0.0417 -0.4274
vn -0.9032 -0.1358 -0.4072
vn -0.9031 -0.2897 -0.3171
vn -0.9031 -0.3937 -0.1716
vn -0.9031 -0.4294 0.0033
vn -0.9030 -0.3912 0.1774
vn -0.9032 -0.2848 0.3212
vn -0.9031 -0.1301 0.4092
vn -0.9031 0.0478 0.4268
vn -0.9031 0.2175 0.3702
vn -0.9032 0.3491 0.2498
vn -0.9031 0.4207 0.0864
vn -0.9032 0.4193 -0.0924
vn -0.9031 0.3456 -0.2547
vn -0.9030 0.2123 -0.3734
vn -0.8088 0.2970 -0.5076
vn -0.8087 -0.4024 -0.4290
vn -0.6558 -0.5093 -0.5572
vn -0.6557 -0.6919 -0.3021
vn -0.6558 -0.7549 0.0055
vn -0.6559 -0.6874 0.3120
vn -0.6558 -0.5011 0.5646
vn -0.8088 -0.3958 0.4349
vn -0.8090 0.3042 0.5030
vn -0.6557 0.3823 0.6511
vn -0.6558 0.6139 0.4393
vn -0.6557 0.7396 0.1517
vn -0.6559 0.7372 -0.1625
vn -0.6557 0.6077 -0.4481
vn -0.6558 0.3726 -0.6565
vn -0.7415 0.5167 -0.4281
vn -0.2573 0.5864 -0.7681
vn -0.2574 -0.7417 -0.6194
vn -0.2084 -0.9039 -0.3736
vn -0.3013 -0.6431 -0.7040
vn -0.3015 -0.8739 -0.3814
vn -0.3014 -0.9535 0.0067
vn -0.3014 -0.8683 0.3940
vn -0.3013 -0.6329 0.7132
vn -0.2083 -0.8986 0.3862
vn -0.7415 -0.5941 0.3117
vn -0.2572 -0.7332 0.6295
vn -0.2572 0.5970 0.7598
vn -0.2085 0.8067 0.5530
vn -0.3013 0.4827 0.8223
vn -0.3013 0.7754 0.5549
vn -0.3011 0.9342 0.1914
vn -0.3011 0.9313 -0.2050
vn -0.3013 0.7673 -0.5661
vn -0.3012 0.4711 -0.8291
vn -0.2086 0.7986 -0.5646
vn 0.0852 0.5867 -0.8053
vn 0.0850 -0.7506 -0.6553
vn 0.0729 -0.9150 -0.3968
vn 0.1018 -0.6709 -0.7345
vn 0.1018 -0.9116 -0.3983
vn 0.1016 -0.9948 0.0072
vn 0.1018 -0.9058 0.4113
vn 0.1020 -0.6604 0.7440
vn 0.0727 -0.9092 0.4100
vn 0.0851 -0.7410 0.6661
vn 0.0852 0.5979 0.7970
vn 0.0730 0.8125 0.5783
vn 0.1018 0.5035 0.8580
vn 0.1018 0.8090 0.5789
vn 0.1017 0.9746 0.1995
vn 0.1019 0.9716 -0.2136
vn 0.1018 0.8006 -0.5905
vn 0.1019 0.4914 -0.8650
vn 0.0730 0.8043 -0.5897
vn 0.6447 0.5163 -0.5637
vn 0.6447 -0.6288 -0.4348
vn 0.6875 -0.4485 -0.5712
vn 0.4886 -0.5886 -0.6441
vn 0.4888 -0.7995 -0.3493
vn 0.4888 -0.8724 0.0060
vn 0.4886 -0.7944 0.3608
vn 0.4886 -0.5791 0.6526
vn 0.6872 -0.4406 0.5776
vn 0.6447 -0.6220 0.4444
vn 0.6447 0.5246 0.5560
vn 0.6871 0.3203 0.6521
vn 0.4885 0.4416 0.7525
vn 0.4887 0.7094 0.5078
vn 0.4886 0.8548 0.1750
vn 0.4885 0.8522 -0.1875
vn 0.4884 0.7022 -0.5180
vn 0.4886 0.4308 -0.7587
vn 0.6874 0.3108 -0.6564
vn 0.5730 0.0798 -0.8157
vn 0.5730 -0.2590 -0.7776
vn 0.5729 -0.5529 -0.6050
vn 0.5729 -0.7512 -0.3278
vn 0.5730 -0.8195 0.0056
vn 0.5731 -0.7464 0.3384
vn 0.5729 -0.5441 0.6131
vn 0.5729 -0.2477 0.7813
vn 0.5729 0.0918 0.8144
vn 0.5727 0.4151 0.7069
vn 0.5729 0.6666 0.4769
vn 0.5729 0.8029 0.1646
vn 0.5728 0.8006 -0.1760
vn 0.5729 0.6596 -0.4866
vn 0.5727 0.4042 -0.7131
vn 1.0000 -0.0000 -0.0000
vn 0.7343 -0.2139 -0.6443
vn 0.7346 0.0661 -0.6753
vn 0.7344 -0.4581 -0.5008
vn 0.7345 -0.6221 -0.2711
vn 0.7345 -0.6786 0.0049
vn 0.7345 -0.6181 0.2801
vn 0.7344 -0.4506 0.5075
vn 0.7346 -0.2050 0.6468
vn 0.7344 0.0755 0.6745
vn 0.7344 0.3438 0.5852
vn 0.7346 0.5522 0.3943
vn 0.7344 0.6649 0.1364
vn 0.7344 0.6629 -0.1456
vn 0.7345 0.5461 -0.4029
vn 0.7345 0.3347 -0.5903
vn -0.7412 -0.5991 -0.3029
vn -0.7413 0.5229 0.4207
# 123 vertex normals

vt 0.0000 1.0000 0.0000
vt 0.0000 0.8667 0.0000
vt 0.0667 0.8667 0.0000
vt 0.0667 1.0000 0.0000
vt 0.1333 0.8667 0.0000
vt 0.1333 1.0000 0.0000
vt 0.2000 0.8667 0.0000
vt 0.2000 1.0000 0.0000
vt 0.2667 0.8667 0.0000
vt 0.2667 1.0000 0.0000
vt 0.3333 0.8667 0.0000
vt 0.3333 1.0000 0.0000
vt 0.4000 0.8667 0.0000
vt 0.4000 1.0000 0.0000
vt 0.4667 0.8667 0.0000
vt 0.4667 1.0000 0.0000
vt 0.5333 0.8667 0.0000
vt 0.5333 1.0000 0.0000
vt 0.6000 0.8667 0.0000
vt 0.6000 1.0000 0.0000
vt 0.6667 0.8667 0.0000
vt 0.6667 1.0000 0.0000
vt 0.7333 0.8667 0.0000
vt 0.7333 1.0000 0.0000
vt 0.8000 0.8667 0.0000
vt 0.8000 1.0000 0.0000
vt 0.8667 0.8667 0.0000
vt 0.8667 1.0000 0.0000
vt 0.9333 0.8667 0.0000
vt 0.9333 1.0000 0.0000
vt 1.0000 0.8667 0.0000
vt 0.0000 0.7333 0.0000
vt 0.0667 0.7333 0.0000
vt 0.1333 0.7333 0.0000
vt 0.2000 0.7333 0.0000
vt 0.2667 0.7333 0.0000
vt 0.3333 0.7333 0.0000
vt 0.4000 0.7333 0.0000
vt 0.4667 0.7333 0.0000
vt 0.5333 0.7333 0.0000
vt 0.6000 0.7333 0.0000
vt 0.6667 0.7333 0.0000
vt 0.7333 0.7333 0.0000
vt 0.8000 0.7333 0.0000
vt 0.8667 0.7333 0.0000
vt 0.9333 0.7333 0.0000
vt 1.0000 0.7333 0.0000
vt 0.0000 0.6000 0.0000
vt 0.0667 0.6000 0.0000
vt 0.1333 0.6000 0.0000
vt 0.2000 0.6000 0.0000
vt 0.2667 0.6000 0.0000
vt 0.3333 0.6000 0.0000
vt 0.4000 0.6000 0.0000
vt 0.4667 0.6000 0.0000
vt 0.5333 0.6000 0.0000
vt 0.6000 0.6000 0.0000
vt 0.6667 0.6000 0.0000
vt 0.7333 0.6000 0.0000
vt 0.8000 0.6000 0.0000
vt 0.8667 0.6000 0.0000
vt 0.9333 0.6000 0.0000
vt 1.0000 0.6000 0.0000
vt 0.0000 0.4667 0.0000
vt 0.0667 0.4667 0.0000
vt 0.1333 0.4667 0.0000
vt 0.2000 0.4667 0.0000
vt 0.2667 0.4667 0.0000
vt 0.3333 0.4667 0.0000
vt 0.4000 0.4667 0.0000
vt 0.4667 0.4667 0.0000
vt 0.5333 0.4667 0.0000
vt 0.6000 0.4667 0.0000
vt 0.6667 0.4667 0.0000
vt 0.7333 0.4667 0.0000
vt 0.8000 0.4667 0.0000
vt 0.8667 0.4667 0.0000
vt 0.9333 0.4667 0.0000
vt 1.0000 0.4667 0.0000
vt 0.0000 0.3333 0.0000
vt 0.0667 0.3333 0.0000
vt 0.1333 0.3333 0.0000
vt 0.2000 0.3333 0.0000
vt 0.2667 0.3333 0.0000
vt 0.3333 0.3333 0.0000
vt 0.4000 0.3333 0.0000
vt 0.4667 0.3333 0.0000
vt 0.5333 0.3333 0.0000
vt 0.6000 0.3333 0.0000
vt 0.6667 0.3333 0.0000
vt 0.7333 0.3333 0.0000
vt 0.8000 0.3333 0.0000
vt 0.8667 0.3333 0.0000
vt 0.9333 0.3333 0.0000
vt 1.0000 0.3333 0.0000
vt 0.0000 0.2000 0.0000
vt 0.0667 0.2000 0.0000
vt 0.1333 0.2000 0.0000
vt 0.2000 0.2000 0.0000
vt 0.2667 0.2000 0.0000
vt 0.3333 0.2000 0.0000
vt 0.4000 0.2000 0.0000
vt 0.4667 0.2000 0.0000
vt 0.5333 0.2000 0.0000
vt 0.6000 0.2000 0.0000
vt 0.6667 0.2000 0.0000
vt 0.7333 0.2000 0.0000
vt 0.8000 0.2000 0.0000
vt 0.8667 0.2000 0.0000
vt 0.9333 0.2000 0.0000
vt 1.0000 0.2000 0.0000
vt 0.0000 0.0667 0.0000
vt 0.0667 0.0667 0.0000
vt 0.1333 0.0667 0.0000
vt 0.2000 0.0667 0.0000
vt 0.2667 0.0667 0.0000
vt 0.3333 0.0667 0.0000
vt 0.4000 0.0667 0.0000
vt 0.4667 0.0667 0.0000
vt 0.5333 0.0667 0.0000
vt 0.6000 0.0667 0.0000
vt 0.6667 0.0667 0.0000
vt 0.7333 0.0667 0.0000
vt 0.8000 0.0667 0.0000
vt 0.8667 0.0667 0.0000
vt 0.9333 0.0667 0.0000
# 126 texture coords

g Bird
s 1
f 1/1/1 2/2/2 3/3/3 
f 1/4/1 3/3/3 4/5/4 
f 1/6/1 4/5/4 5/7/5 
f 1/8/1 5/7/5 6/9/6 
f 1/10/1 6/9/6 7/11/7 
f 1/12/1 7/11/7 8/13/8 
f 1/14/1 8/13/8 9/15/9 
f 1/16/1 9/15/9 10/17/10 
f 1/18/1 10/17/10 11/19/11 
f 1/20/1 11/19/11 12/21/12 
f 1/22/1 12/21/12 13/23/13 
f 1/24/1 13/23/13 14/25/14 
f 1/26/1 14/25/14 15/27/15 
f 1/28/1 15/27/15 16/29/16 
f 1/30/1 16/29/16 2/31/2 
f 2/2/2 17/32/17 18/33/18 
f 3/3/3 18/33/18 19/34/19 
f 4/5/4 19/34/19 20/35/20 
f 5/7/5 20/35/20 21/36/21 
f 6/9/6 21/36/21 22/37/22 
f 7/11/7 22/37/22 23/38/23 
f 8/13/8 23/38/23 24/39/24 
f 9/15/9 24/39/24 25/40/25 
f 10/17/10 25/40/25 26/41/26 
f 11/19/11 26/41/26 27/42/27 
f 12/21/12 27/42/27 28/43/28 
f 13/23/13 28/43/28 29/44/29 
f 14/25/14 29/44/29 30/45/30 
f 15/27/15 30/45/30 31/46/31 
f 16/29/16 31/46/31 17/47/17 
f 32/32/32 33/48/33 34/49/34 
f 18/33/18 35/49/35 36/50/36 
f 19/34/19 36/50/36 37/51/37 
f 20/35/20 37/51/37 38/52/38 
f 21/36/21 38/52/38 39/53/39 
f 22/37/22 39/53/39 40/54/40 
f 23/38/23 40/54/40 41/55/41 
f 42/39/42 43/55/43 44/56/44 
f 25/40/25 45/56/45 46/57/46 
f 26/41/26 46/57/46 47/58/47 
f 27/42/27 47/58/47 48/59/48 
f 28/43/28 48/59/48 49/60/49 
f 29/44/29 49/60/49 50/61/50 
f 30/45/30 50/61/50 51/62/51 
f 31/46/31 51/62/51 52/63/52 
f 33/48/33 53/64/53 54/65/54 
f 35/49/35 55/65/55 56/66/56 
f 36/50/36 56/66/56 57/67/57 
f 37/51/37 57/67/57 58/68/58 
f 38/52/38 58/68/58 59/69/59 
f 39/53/39 59/69/59 60/70/60 
f 40/54/40 60/70/60 61/71/61 
f 43/55/43 62/71/62 63/72/63 
f 45/56/45 64/72/64 65/73/65 
f 46/57/46 65/73/65 66/74/66 
f 47/58/47 66/74/66 67/75/67 
f 48/59/48 67/75/67 68/76/68 
f 49/60/49 68/76/68 69/77/69 
f 50/61/50 69/77/69 70/78/70 
f 51/62/51 70/78/70 71/79/71 
f 53/64/53 72/80/72 73/81/73 
f 55/65/55 74/81/74 75/82/75 
f 56/66/56 75/82/75 76/83/76 
f 57/67/57 76/83/76 77/84/77 
f 58/68/58 77/84/77 78/85/78 
f 59/69/59 78/85/78 79/86/79 
f 60/70/60 79/86/79 80/87/80 
f 62/71/62 81/87/81 82/88/82 
f 64/72/64 83/88/83 84/89/84 
f 65/73/65 84/89/84 85/90/85 
f 66/74/66 85/90/85 86/91/86 
f 67/75/67 86/91/86 87/92/87 
f 68/76/68 87/92/87 88/93/88 
f 69/77/69 88/93/88 89/94/89 
f 70/78/70 89/94/89 90/95/90 
f 90/80/90 91/96/91 92/97/92 
f 74/81/74 92/97/92 93/98/93 
f 75/82/75 93/98/93 94/99/94 
f 76/83/76 94/99/94 95/100/95 
f 77/84/77 95/100/95 96/101/96 
f 78/85/78 96/101/96 97/102/97 
f 79/86/79 97/102/97 98/103/98 
f 80/87/80 98/103/98 99/104/99 
f 83/88/83 99/104/99 100/105/100 
f 84/89/84 100/105/100 101/106/101 
f 85/90/85 101/106/101 102/107/102 
f 86/91/86 102/107/102 103/108/103 
f 87/92/87 103/108/103 104/109/104 
f 88/93/88 104/109/104 105/110/105 
f 89/94/89 105/110/105 91/111/91 
f 106/112/106 107/97/107 108/96/108 
f 106/113/106 109/98/109 107/97/107 
f 106/114/106 110/99/110 109/98/109 
f 106/115/106 111/100/111 110/99/110 
f 106/116/106 112/101/112 111/100/111 
f 106/117/106 113/102/113 112/101/112 
f 106/118/106 114/103/114 113/102/113 
f 106/119/106 115/104/115 114/103/114 
f 106/120/106 116/105/116 115/104/115 
f 106/121/106 117/106/117 116/105/116 
f 106/122/106 118/107/118 117/106/117 
f 106/123/106 119/108/119 118/107/118 
f 106/124/106 120/109/120 119/108/119 
f 106/125/106 121/110/121 120/109/120 
f 106/126/106 108/111/108 121/110/121 
f 92/97/92 91/96/91 108/96/108 
f 91/111/91 105/110/105 121/110/121 
f 105/110/105 104/109/104 120/109/120 
f 104/109/104 103/108/103 119/108/119 
f 103/108/103 102/107/102 118/107/118 
f 102/107/102 101/106/101 117/106/117 
f 101/106/101 100/105/100 116/105/116 
f 100/105/100 99/104/99 115/104/115 
f 99/104/99 98/103/98 114/103/114 
f 98/103/98 97/102/97 113/102/113 
f 97/102/97 96/101/96 112/101/112 
f 96/101/96 95/100/95 111/100/111 
f 95/100/95 94/99/94 110/99/110 
f 94/99/94 93/98/93 109/98/109 
f 93/98/93 92/97/92 107/97/107 
f 18/33/18 17/32/17 32/32/32 
f 17/32/17 52/48/52 33/48/33 
f 52/48/52 71/64/71 53/64/53 
f 71/64/71 90/80/90 72/80/72 
f 90/80/90 74/81/74 73/81/73 
f 74/81/74 55/65/55 54/65/54 
f 55/65/55 35/49/35 34/49/34 
f 35/49/35 18/33/18 122/33/122 
f 25/40/25 24/39/24 42/39/42 
f 24/39/24 41/55/41 43/55/43 
f 41/55/41 61/71/61 62/71/62 
f 61/71/61 80/87/80 81/87/81 
f 80/87/80 83/88/83 82/88/82 
f 83/88/83 64/72/64 63/72/63 
f 64/72/64 45/56/45 44/56/44 
f 45/56/45 25/40/25 123/40/123 
f 18/33/18 3/3/3 2/2/2 
f 19/34/19 4/5/4 3/3/3 
f 20/35/20 5/7/5 4/5/4 
f 21/36/21 6/9/6 5/7/5 
f 22/37/22 7/11/7 6/9/6 
f 23/38/23 8/13/8 7/11/7 
f 24/39/24 9/15/9 8/13/8 
f 25/40/25 10/17/10 9/15/9 
f 26/41/26 11/19/11 10/17/10 
f 27/42/27 12/21/12 11/19/11 
f 28/43/28 13/23/13 12/21/12 
f 29/44/29 14/25/14 13/23/13 
f 30/45/30 15/27/15 14/25/14 
f 31/46/31 16/29/16 15/27/15 
f 17/47/17 2/31/2 16/29/16 
f 34/49/34 122/33/122 32/32/32 
f 36/50/36 19/34/19 18/33/18 
f 37/51/37 20/35/20 19/34/19 
f 38/52/38 21/36/21 20/35/20 
f 39/53/39 22/37/22 21/36/21 
f 40/54/40 23/38/23 22/37/22 
f 41/55/41 24/39/24 23/38/23 
f 44/56/44 123/40/123 42/39/42 
f 46/57/46 26/41/26 25/40/25 
f 47/58/47 27/42/27 26/41/26 
f 48/59/48 28/43/28 27/42/27 
f 49/60/49 29/44/29 28/43/28 
f 50/61/50 30/45/30 29/44/29 
f 51/62/51 31/46/31 30/45/30 
f 52/63/52 17/47/17 31/46/31 
f 54/65/54 34/49/34 33/48/33 
f 56/66/56 36/50/36 35/49/35 
f 57/67/57 37/51/37 36/50/36 
f 58/68/58 38/52/38 37/51/37 
f 59/69/59 39/53/39 38/52/38 
f 60/70/60 40/54/40 39/53/39 
f 61/71/61 41/55/41 40/54/40 
f 63/72/63 44/56/44 43/55/43 
f 65/73/65 46/57/46 45/56/45 
f 66/74/66 47/58/47 46/57/46 
f 67/75/67 48/59/48 47/58/47 
f 68/76/68 49/60/49 48/59/48 
f 69/77/69 50/61/50 49/60/49 
f 70/78/70 51/62/51 50/61/50 
f 71/79/71 52/63/52 51/62/51 
f 73/81/73 54/65/54 53/64/53 
f 75/82/75 56/66/56 55/65/55 
f 76/83/76 57/67/57 56/66/56 
f 77/84/77 58/68/58 57/67/57 
f 78/85/78 59/69/59 58/68/58 
f 79/86/79 60/70/60 59/69/59 
f 80/87/80 61/71/61 60/70/60 
f 82/88/82 63/72/63 62/71/62 
f 84/89/84 65/73/65 64/72/64 
f 85/90/85 66/74/66 65/73/65 
f 86/91/86 67/75/67 66/74/66 
f 87/92/87 68/76/68 67/75/67 
f 88/93/88 69/77/69 68/76/68 
f 89/94/89 70/78/70 69/77/69 
f 90/95/90 71/79/71 70/78/70 
f 92/97/92 74/81/74 90/80/90 
f 93/98/93 75/82/75 74/81/74 
f 94/99/94 76/83/76 75/82/75 
f 95/100/95 77/84/77 76/83/76 
f 96/101/96 78/85/78 77/84/77 
f 97/102/97 79/86/79 78/85/78 
f 98/103/98 80/87/80 79/86/79 
f 99/104/99 83/88/83 80/87/80 
f 100/105/100 84/89/84 83/88/83 
f 101/106/101 85/90/85 84/89/84 
f 102/107/102 86/91/86 85/90/85 
f 103/108/103 87/92/87 86/91/86 
f 104/109/104 88/93/88 87/92/87 
f 105/110/105 89/94/89 88/93/88 
f 91/111/91 90/95/90 89/94/89 
f 108/96/108 107/97/107 92/97/92 
f 121/110/121 108/111/108 91/111/91 
f 120/109/120 121/110/121 105/110/105 
f 119/108/119 120/109/120 104/109/104 
f 118/107/118 119/108/119 103/108/103 
f 117/106/117 118/107/118 102/107/102 
f 116/105/116 117/106/117 101/106/101 
f 115/104/115 116/105/116 100/105/100 
f 114/103/114 115/104/115 99/104/99 
f 113/102/113 114/103/114 98/103/98 
f 112/101/112 113/102/113 97/102/97 
f 111/100/111 112/101/112 96/101/96 
f 110/99/110 111/100/111 95/100/95 
f 109/98/109 110/99/110 94/99/94 
f 107/97/107 109/98/109 93/98/93 
f 32/32/32 122/33/122 18/33/18 
f 33/48/33 32/32/32 17/32/17 
f 53/64/53 33/48/33 52/48/52 
f 72/80/72 53/64/53 71/64/71 
f 73/81/73 72/80/72 90/80/90 
f 54/65/54 73/81/73 74/81/74 
f 34/49/34 54/65/54 55/65/55 
f 122/33/122 34/49/34 35/49/35 
f 42/39/42 123/40/123 25/40/25 
f 43/55/43 42/39/42 24/39/24 
f 62/71/62 43/55/43 41/55/41 
f 81/87/81 62/71/62 61/71/61 
f 82/88/82 81/87/81 80/87/80 
f 63/72/63 82/88/82 83/88/83 
f 44/56/44 63/72/63 64/72/64 
f 123/40/123 44/56/44 45/56/45 
# 0 polygons - 242 triangles

