# 3ds Max Wavefront OBJ Exporter v0.97b - (c)2007 guruware
# File Created: 05.05.2018 16:01:48

mtllib Clouds.mtl

#
# object Sphere001
#

v  -0.4893 0.7329 0.5680
v  -0.4893 0.5182 0.0498
v  -0.8557 0.5182 0.2016
v  -1.0075 0.5182 0.5680
v  -0.8557 0.5182 0.9345
v  -0.4893 0.5182 1.0862
v  -0.1228 0.5182 0.9345
v  0.0290 0.5182 0.5680
v  -0.1228 0.5182 0.2016
v  -0.4893 -0.0000 -0.1649
v  -1.0075 -0.0000 0.0498
v  -1.2222 -0.0000 0.5680
v  -1.0075 -0.0000 1.0862
v  -0.4893 -0.0000 1.3009
v  0.0290 -0.0000 1.0862
v  0.2436 -0.0000 0.5680
v  0.0290 -0.0000 0.0498
v  -0.4893 -0.5182 0.0498
v  -0.8557 -0.5182 0.2016
v  -1.0075 -0.5182 0.5680
v  -0.8557 -0.5182 0.9345
v  -0.4893 -0.5182 1.0862
v  -0.1228 -0.5182 0.9345
v  0.0290 -0.5182 0.5680
v  -0.1228 -0.5182 0.2016
v  -0.4893 -0.7329 0.5680
v  0.4893 0.7329 0.5680
v  0.4893 0.5182 0.0498
v  0.1228 0.5182 0.2016
v  -0.0290 0.5182 0.5680
v  0.1228 0.5182 0.9345
v  0.4893 0.5182 1.0862
v  0.8557 0.5182 0.9345
v  1.0075 0.5182 0.5680
v  0.8557 0.5182 0.2016
v  0.4893 -0.0000 -0.1649
v  -0.0290 -0.0000 0.0498
v  -0.2436 -0.0000 0.5680
v  -0.0290 -0.0000 1.0862
v  0.4893 -0.0000 1.3009
v  1.0075 -0.0000 1.0862
v  1.2222 -0.0000 0.5680
v  1.0075 -0.0000 0.0498
v  0.4893 -0.5182 0.0498
v  0.1228 -0.5182 0.2016
v  -0.0290 -0.5182 0.5680
v  0.1228 -0.5182 0.9345
v  0.4893 -0.5182 1.0862
v  0.8557 -0.5182 0.9345
v  1.0075 -0.5182 0.5680
v  0.8557 -0.5182 0.2016
v  0.4893 -0.7329 0.5680
v  0.4893 0.7329 -0.5680
v  0.4893 0.5182 -1.0862
v  0.1228 0.5182 -0.9345
v  -0.0290 0.5182 -0.5680
v  0.1228 0.5182 -0.2016
v  0.4893 0.5182 -0.0498
v  0.8557 0.5182 -0.2016
v  1.0075 0.5182 -0.5680
v  0.8557 0.5182 -0.9345
v  0.4893 -0.0000 -1.3009
v  -0.0290 -0.0000 -1.0862
v  -0.2436 -0.0000 -0.5680
v  -0.0290 -0.0000 -0.0498
v  0.4893 -0.0000 0.1649
v  1.0075 -0.0000 -0.0498
v  1.2222 -0.0000 -0.5680
v  1.0075 -0.0000 -1.0862
v  0.4893 -0.5182 -1.0862
v  0.1228 -0.5182 -0.9345
v  -0.0290 -0.5182 -0.5680
v  0.1228 -0.5182 -0.2016
v  0.4893 -0.5182 -0.0498
v  0.8557 -0.5182 -0.2016
v  1.0075 -0.5182 -0.5680
v  0.8557 -0.5182 -0.9345
v  0.4893 -0.7329 -0.5680
v  -0.4893 0.7329 -0.5680
v  -0.4893 0.5182 -1.0862
v  -0.8557 0.5182 -0.9345
v  -1.0075 0.5182 -0.5680
v  -0.8557 0.5182 -0.2016
v  -0.4893 0.5182 -0.0498
v  -0.1228 0.5182 -0.2016
v  0.0290 0.5182 -0.5680
v  -0.1228 0.5182 -0.9345
v  -0.4893 -0.0000 -1.3009
v  -1.0075 -0.0000 -1.0862
v  -1.2222 -0.0000 -0.5680
v  -1.0075 -0.0000 -0.0498
v  -0.4893 -0.0000 0.1649
v  0.0290 -0.0000 -0.0498
v  0.2436 -0.0000 -0.5680
v  0.0290 -0.0000 -1.0862
v  -0.4893 -0.5182 -1.0862
v  -0.8557 -0.5182 -0.9345
v  -1.0075 -0.5182 -0.5680
v  -0.8557 -0.5182 -0.2016
v  -0.4893 -0.5182 -0.0498
v  -0.1228 -0.5182 -0.2016
v  0.0290 -0.5182 -0.5680
v  -0.1228 -0.5182 -0.9345
v  -0.4893 -0.7329 -0.5680
# 104 vertices

vn -0.0000 1.0000 -0.0000
vn -0.0000 0.6630 -0.7486
vn -0.5294 0.6630 -0.5294
vn -0.7486 0.6630 -0.0000
vn -0.5294 0.6630 0.5294
vn -0.0000 0.6630 0.7486
vn 0.5294 0.6630 0.5294
vn 0.7486 0.6630 0.0000
vn 0.5294 0.6630 -0.5294
vn 0.0000 -0.0000 -1.0000
vn -0.7071 0.0000 -0.7071
vn -1.0000 -0.0000 0.0000
vn -0.7071 -0.0000 0.7071
vn 0.0000 -0.0000 1.0000
vn 0.7071 -0.0000 0.7071
vn 1.0000 0.0000 0.0000
vn 0.7071 -0.0000 -0.7071
vn 0.0000 -0.6630 -0.7486
vn -0.5294 -0.6630 -0.5294
vn -0.7486 -0.6630 0.0000
vn -0.5294 -0.6630 0.5294
vn 0.0000 -0.6630 0.7486
vn 0.5294 -0.6630 0.5294
vn 0.7486 -0.6630 0.0000
vn 0.5294 -0.6630 -0.5294
vn -0.0000 -1.0000 -0.0000
vn 0.0000 0.6630 -0.7486
vn -0.7486 0.6630 0.0000
vn -0.7071 0.0000 0.7071
vn 1.0000 -0.0000 0.0000
vn 0.0000 1.0000 0.0000
vn -0.7071 -0.0000 -0.7071
vn -1.0000 0.0000 0.0000
vn 0.7071 0.0000 0.7071
vn 0.0000 -1.0000 0.0000
vn 0.0000 1.0000 -0.0000
vn 0.7071 0.0000 -0.7071
vn -0.0000 -0.6630 -0.7486
vn -0.7486 -0.6630 -0.0000
vn 0.0000 -1.0000 -0.0000
# 40 vertex normals

vt 0.2601 0.6430 -0.3847
vt 0.2601 0.8627 -0.3847
vt 0.1047 0.7983 -0.3847
vt 0.0404 0.6430 0.3847
vt 0.1047 0.4876 -0.3847
vt 0.2601 0.4232 -0.3847
vt 0.4154 0.4876 -0.3847
vt 0.4798 0.6430 0.3847
vt 0.4154 0.7983 -0.3847
vt 0.4997 0.0090 -0.0973
vt 0.5000 0.1489 -0.0973
vt 0.3793 0.1491 -0.0973
vt 0.3790 0.0094 -0.0973
vt 0.2582 0.1491 -0.0973
vt 0.2582 0.0102 -0.0973
vt 0.1339 0.1508 -0.0973
vt 0.1405 0.0132 -0.0973
vt 0.0005 0.1523 -0.0973
vt 0.9631 0.0005 -0.0973
vt 0.9995 0.1455 -0.0973
vt 0.8661 0.1469 -0.0973
vt 0.8565 0.0096 -0.0973
vt 0.7418 0.1487 -0.0973
vt 0.7400 0.0095 -0.0973
vt 0.6207 0.1486 -0.0973
vt 0.6204 0.0089 -0.0973
vt 0.5003 0.2887 -0.0973
vt 0.3796 0.2888 -0.0973
vt 0.2600 0.2882 0.0973
vt 0.1435 0.2881 -0.0973
vt 0.0369 0.2972 -0.0973
vt 0.9663 0.2912 -0.0973
vt 0.8595 0.2845 -0.0973
vt 0.7418 0.2875 0.0973
vt 0.6210 0.2883 -0.0973
vt 0.7441 0.6438 -0.0660
vt 0.5887 0.4884 -0.0660
vt 0.7441 0.4241 -0.0660
vt 0.5244 0.6438 0.0660
vt 0.5887 0.7992 -0.0660
vt 0.7441 0.8635 -0.0660
vt 0.8995 0.7992 -0.0660
vt 0.9638 0.6438 0.0660
vt 0.8995 0.4884 -0.0660
vt 0.0337 0.0065 -0.0973
# 45 texture coords

o Sphere001
g Sphere001
usemtl wire_027177088
s 1
f 1/1/1 2/2/2 3/3/3 
f 1/1/1 3/3/3 4/4/4 
f 1/1/1 4/4/4 5/5/5 
f 1/1/1 5/5/5 6/6/6 
f 1/1/1 6/6/6 7/7/7 
f 1/1/1 7/7/7 8/8/8 
f 1/1/1 8/8/8 9/9/9 
f 1/1/1 9/9/9 2/2/2 
f 2/10/2 10/11/10 11/12/11 
f 3/13/3 11/12/11 12/14/12 
f 4/15/4 12/14/12 13/16/13 
f 5/17/5 13/16/13 14/18/14 
f 6/19/6 14/20/14 15/21/15 
f 7/22/7 15/21/15 16/23/16 
f 8/24/8 16/23/16 17/25/17 
f 9/26/9 17/25/17 10/11/10 
f 10/11/10 18/27/18 19/28/19 
f 11/12/11 19/28/19 20/29/20 
f 12/14/12 20/29/20 21/30/21 
f 13/16/13 21/30/21 22/31/22 
f 14/20/14 22/32/22 23/33/23 
f 15/21/15 23/33/23 24/34/24 
f 16/23/16 24/34/24 25/35/25 
f 17/25/17 25/35/25 18/27/18 
f 26/36/26 19/37/19 18/38/18 
f 26/36/26 20/39/20 19/37/19 
f 26/36/26 21/40/21 20/39/20 
f 26/36/26 22/41/22 21/40/21 
f 26/36/26 23/42/23 22/41/22 
f 26/36/26 24/43/24 23/42/23 
f 26/36/26 25/44/25 24/43/24 
f 26/36/26 18/38/18 25/44/25 
f 27/1/1 28/2/27 29/3/3 
f 27/1/1 29/3/3 30/4/28 
f 27/1/1 30/4/28 31/5/5 
f 27/1/1 31/5/5 32/6/6 
f 27/1/1 32/6/6 33/7/7 
f 27/1/1 33/7/7 34/8/8 
f 27/1/1 34/8/8 35/9/9 
f 27/1/1 35/9/9 28/2/27 
f 28/10/27 36/11/10 37/12/11 
f 29/13/3 37/12/11 38/14/12 
f 30/15/28 38/14/12 39/16/29 
f 31/17/5 39/16/29 40/18/14 
f 32/19/6 40/20/14 41/21/15 
f 33/22/7 41/21/15 42/23/30 
f 34/24/8 42/23/30 43/25/17 
f 35/26/9 43/25/17 36/11/10 
f 36/11/10 44/27/18 45/28/19 
f 37/12/11 45/28/19 46/29/20 
f 38/14/12 46/29/20 47/30/21 
f 39/16/29 47/30/21 48/31/22 
f 40/20/14 48/32/22 49/33/23 
f 41/21/15 49/33/23 50/34/24 
f 42/23/30 50/34/24 51/35/25 
f 43/25/17 51/35/25 44/27/18 
f 52/36/26 45/37/19 44/38/18 
f 52/36/26 46/39/20 45/37/19 
f 52/36/26 47/40/21 46/39/20 
f 52/36/26 48/41/22 47/40/21 
f 52/36/26 49/42/23 48/41/22 
f 52/36/26 50/43/24 49/42/23 
f 52/36/26 51/44/25 50/43/24 
f 52/36/26 44/38/18 51/44/25 
f 53/1/31 54/2/27 55/3/3 
f 53/1/31 55/3/3 56/4/28 
f 53/1/31 56/4/28 57/5/5 
f 53/1/31 57/5/5 58/6/6 
f 53/1/31 58/6/6 59/7/7 
f 53/1/31 59/7/7 60/8/8 
f 53/1/31 60/8/8 61/9/9 
f 53/1/31 61/9/9 54/2/27 
f 54/10/27 62/11/10 63/12/32 
f 55/13/3 63/12/32 64/14/33 
f 56/15/28 64/14/33 65/16/13 
f 57/17/5 65/16/13 66/18/14 
f 58/19/6 66/20/14 67/21/34 
f 59/22/7 67/21/34 68/23/16 
f 60/24/8 68/23/16 69/25/17 
f 61/26/9 69/25/17 62/11/10 
f 62/11/10 70/27/18 71/28/19 
f 63/12/32 71/28/19 72/29/20 
f 64/14/33 72/29/20 73/30/21 
f 65/16/13 73/30/21 74/31/22 
f 66/20/14 74/32/22 75/33/23 
f 67/21/34 75/33/23 76/34/24 
f 68/23/16 76/34/24 77/35/25 
f 69/25/17 77/35/25 70/27/18 
f 78/36/35 71/37/19 70/38/18 
f 78/36/35 72/39/20 71/37/19 
f 78/36/35 73/40/21 72/39/20 
f 78/36/35 74/41/22 73/40/21 
f 78/36/35 75/42/23 74/41/22 
f 78/36/35 76/43/24 75/42/23 
f 78/36/35 77/44/25 76/43/24 
f 78/36/35 70/38/18 77/44/25 
f 79/1/36 80/2/27 81/3/3 
f 79/1/36 81/3/3 82/4/4 
f 79/1/36 82/4/4 83/5/5 
f 79/1/36 83/5/5 84/6/6 
f 79/1/36 84/6/6 85/7/7 
f 79/1/36 85/7/7 86/8/8 
f 79/1/36 86/8/8 87/9/9 
f 79/1/36 87/9/9 80/2/27 
f 80/10/27 88/11/10 89/12/32 
f 81/13/3 89/12/32 90/14/33 
f 82/15/4 90/14/33 91/16/13 
f 83/17/5 91/16/13 92/18/14 
f 84/19/6 92/20/14 93/21/15 
f 85/22/7 93/21/15 94/23/16 
f 86/24/8 94/23/16 95/25/37 
f 87/26/9 95/25/37 88/11/10 
f 88/11/10 96/27/38 97/28/19 
f 89/12/32 97/28/19 98/29/39 
f 90/14/33 98/29/39 99/30/21 
f 91/16/13 99/30/21 100/31/22 
f 92/20/14 100/32/22 101/33/23 
f 93/21/15 101/33/23 102/34/24 
f 94/23/16 102/34/24 103/35/25 
f 95/25/37 103/35/25 96/27/38 
f 104/36/40 97/37/19 96/38/38 
f 104/36/40 98/39/39 97/37/19 
f 104/36/40 99/40/21 98/39/39 
f 104/36/40 100/41/22 99/40/21 
f 104/36/40 101/42/23 100/41/22 
f 104/36/40 102/43/24 101/42/23 
f 104/36/40 103/44/25 102/43/24 
f 104/36/40 96/38/38 103/44/25 
f 11/12/11 3/13/3 2/10/2 
f 12/14/12 4/15/4 3/13/3 
f 13/16/13 5/17/5 4/15/4 
f 14/18/14 6/45/6 5/17/5 
f 15/21/15 7/22/7 6/19/6 
f 16/23/16 8/24/8 7/22/7 
f 17/25/17 9/26/9 8/24/8 
f 10/11/10 2/10/2 9/26/9 
f 19/28/19 11/12/11 10/11/10 
f 20/29/20 12/14/12 11/12/11 
f 21/30/21 13/16/13 12/14/12 
f 22/31/22 14/18/14 13/16/13 
f 23/33/23 15/21/15 14/20/14 
f 24/34/24 16/23/16 15/21/15 
f 25/35/25 17/25/17 16/23/16 
f 18/27/18 10/11/10 17/25/17 
f 37/12/11 29/13/3 28/10/27 
f 38/14/12 30/15/28 29/13/3 
f 39/16/29 31/17/5 30/15/28 
f 40/18/14 32/45/6 31/17/5 
f 41/21/15 33/22/7 32/19/6 
f 42/23/30 34/24/8 33/22/7 
f 43/25/17 35/26/9 34/24/8 
f 36/11/10 28/10/27 35/26/9 
f 45/28/19 37/12/11 36/11/10 
f 46/29/20 38/14/12 37/12/11 
f 47/30/21 39/16/29 38/14/12 
f 48/31/22 40/18/14 39/16/29 
f 49/33/23 41/21/15 40/20/14 
f 50/34/24 42/23/30 41/21/15 
f 51/35/25 43/25/17 42/23/30 
f 44/27/18 36/11/10 43/25/17 
f 63/12/32 55/13/3 54/10/27 
f 64/14/33 56/15/28 55/13/3 
f 65/16/13 57/17/5 56/15/28 
f 66/18/14 58/45/6 57/17/5 
f 67/21/34 59/22/7 58/19/6 
f 68/23/16 60/24/8 59/22/7 
f 69/25/17 61/26/9 60/24/8 
f 62/11/10 54/10/27 61/26/9 
f 71/28/19 63/12/32 62/11/10 
f 72/29/20 64/14/33 63/12/32 
f 73/30/21 65/16/13 64/14/33 
f 74/31/22 66/18/14 65/16/13 
f 75/33/23 67/21/34 66/20/14 
f 76/34/24 68/23/16 67/21/34 
f 77/35/25 69/25/17 68/23/16 
f 70/27/18 62/11/10 69/25/17 
f 89/12/32 81/13/3 80/10/27 
f 90/14/33 82/15/4 81/13/3 
f 91/16/13 83/17/5 82/15/4 
f 92/18/14 84/45/6 83/17/5 
f 93/21/15 85/22/7 84/19/6 
f 94/23/16 86/24/8 85/22/7 
f 95/25/37 87/26/9 86/24/8 
f 88/11/10 80/10/27 87/26/9 
f 97/28/19 89/12/32 88/11/10 
f 98/29/39 90/14/33 89/12/32 
f 99/30/21 91/16/13 90/14/33 
f 100/31/22 92/18/14 91/16/13 
f 101/33/23 93/21/15 92/20/14 
f 102/34/24 94/23/16 93/21/15 
f 103/35/25 95/25/37 94/23/16 
f 96/27/38 88/11/10 95/25/37 
# 0 polygons - 192 triangles

